<mxfile host="65bd71144e">
    <diagram id="eWBZczEK-0XSzhH1aRuM" name="Page-1">
        <mxGraphModel dx="371" dy="342" grid="1" gridSize="10" guides="1" tooltips="1" connect="1" arrows="1" fold="1" page="1" pageScale="1" pageWidth="850" pageHeight="1100" math="0" shadow="0">
            <root>
                <mxCell id="0"/>
                <mxCell id="1" parent="0"/>
                <mxCell id="6" style="edgeStyle=elbowEdgeStyle;rounded=0;orthogonalLoop=1;jettySize=auto;html=1;elbow=vertical;startArrow=open;startFill=0;entryX=0;entryY=0.5;entryDx=0;entryDy=0;" parent="1" source="2" target="7" edge="1">
                    <mxGeometry relative="1" as="geometry">
                        <mxPoint x="280" y="295" as="targetPoint"/>
                    </mxGeometry>
                </mxCell>
                <mxCell id="11" value="&lt;font style=&quot;font-size: 13px&quot;&gt;GET /api/get-count/&lt;/font&gt;" style="edgeLabel;html=1;align=center;verticalAlign=middle;resizable=0;points=[];" parent="6" vertex="1" connectable="0">
                    <mxGeometry x="0.301" y="-2" relative="1" as="geometry">
                        <mxPoint x="-27" y="-2" as="offset"/>
                    </mxGeometry>
                </mxCell>
                <mxCell id="2" value="" style="points=[[0.03,0.03,0],[0.5,0,0],[0.97,0.03,0],[1,0.4,0],[0.97,0.745,0],[0.5,1,0],[0.03,0.745,0],[0,0.4,0]];verticalLabelPosition=bottom;html=1;verticalAlign=top;aspect=fixed;align=center;pointerEvents=1;shape=mxgraph.cisco19.workstation;fillColor=#005073;strokeColor=none;" parent="1" vertex="1">
                    <mxGeometry x="20" y="275" width="50" height="42" as="geometry"/>
                </mxCell>
                <mxCell id="4" value="Proxy Server" style="text;html=1;align=center;verticalAlign=middle;resizable=0;points=[];autosize=1;strokeColor=none;" parent="1" vertex="1">
                    <mxGeometry x="295" y="240" width="80" height="20" as="geometry"/>
                </mxCell>
                <mxCell id="9" style="rounded=0;orthogonalLoop=1;jettySize=auto;html=1;startArrow=open;startFill=0;" parent="1" source="7" target="8" edge="1">
                    <mxGeometry relative="1" as="geometry"/>
                </mxCell>
                <mxCell id="7" value="" style="aspect=fixed;perimeter=ellipsePerimeter;html=1;align=center;shadow=0;dashed=0;spacingTop=3;image;image=img/lib/active_directory/generic_server.svg;" parent="1" vertex="1">
                    <mxGeometry x="321" y="265" width="28.000000000000004" height="52" as="geometry"/>
                </mxCell>
                <mxCell id="19" style="rounded=0;orthogonalLoop=1;jettySize=auto;html=1;exitX=1;exitY=0.5;exitDx=0;exitDy=0;endArrow=classicThin;endFill=1;shape=link;edgeStyle=orthogonalEdgeStyle;width=4;" parent="1" source="8" target="15" edge="1">
                    <mxGeometry relative="1" as="geometry"/>
                </mxCell>
                <mxCell id="8" value="" style="aspect=fixed;perimeter=ellipsePerimeter;html=1;align=center;shadow=0;dashed=0;spacingTop=3;image;image=img/lib/active_directory/generic_server.svg;" parent="1" vertex="1">
                    <mxGeometry x="550" y="265" width="28.000000000000004" height="52" as="geometry"/>
                </mxCell>
                <mxCell id="10" value="API" style="text;html=1;align=center;verticalAlign=middle;resizable=0;points=[];autosize=1;strokeColor=none;" parent="1" vertex="1">
                    <mxGeometry x="548" y="240" width="30" height="20" as="geometry"/>
                </mxCell>
                <mxCell id="12" value="&lt;font style=&quot;font-size: 14px&quot;&gt;{&lt;br&gt;&quot;count&quot;: 23&lt;br&gt;}&lt;/font&gt;" style="text;html=1;align=left;verticalAlign=middle;resizable=0;points=[];autosize=1;strokeColor=none;" parent="1" vertex="1">
                    <mxGeometry x="529" y="335" width="80" height="50" as="geometry"/>
                </mxCell>
                <mxCell id="13" value="&lt;font style=&quot;font-size: 14px&quot;&gt;Injects new header:&lt;br&gt;&lt;br&gt;Authorization: 123456&lt;/font&gt;" style="text;html=1;align=left;verticalAlign=middle;resizable=0;points=[];autosize=1;strokeColor=none;" parent="1" vertex="1">
                    <mxGeometry x="270" y="335" width="150" height="50" as="geometry"/>
                </mxCell>
                <mxCell id="14" value="No Authorization header!" style="text;html=1;align=center;verticalAlign=middle;resizable=0;points=[];autosize=1;strokeColor=none;" parent="1" vertex="1">
                    <mxGeometry x="20" y="240" width="150" height="20" as="geometry"/>
                </mxCell>
                <mxCell id="15" value="" style="aspect=fixed;html=1;points=[];align=center;image;fontSize=12;image=img/lib/mscae/Cache_Redis_Product.svg;" parent="1" vertex="1">
                    <mxGeometry x="680" y="273.2" width="40" height="35.6" as="geometry"/>
                </mxCell>
                <mxCell id="23" value="get count" style="text;html=1;align=center;verticalAlign=middle;resizable=0;points=[];autosize=1;strokeColor=none;fontSize=14;" parent="1" vertex="1">
                    <mxGeometry x="600" y="253.2" width="70" height="20" as="geometry"/>
                </mxCell>
                <mxCell id="31" style="edgeStyle=elbowEdgeStyle;rounded=0;orthogonalLoop=1;jettySize=auto;html=1;elbow=vertical;startArrow=open;startFill=0;entryX=0;entryY=0.5;entryDx=0;entryDy=0;" parent="1" source="33" target="35" edge="1">
                    <mxGeometry relative="1" as="geometry">
                        <mxPoint x="280" y="65" as="targetPoint"/>
                    </mxGeometry>
                </mxCell>
                <mxCell id="32" value="&lt;font style=&quot;font-size: 13px&quot;&gt;GET /api/get-count/&lt;/font&gt;" style="edgeLabel;html=1;align=center;verticalAlign=middle;resizable=0;points=[];" parent="31" vertex="1" connectable="0">
                    <mxGeometry x="0.301" y="-2" relative="1" as="geometry">
                        <mxPoint x="-27" y="-2" as="offset"/>
                    </mxGeometry>
                </mxCell>
                <mxCell id="33" value="" style="points=[[0.03,0.03,0],[0.5,0,0],[0.97,0.03,0],[1,0.4,0],[0.97,0.745,0],[0.5,1,0],[0.03,0.745,0],[0,0.4,0]];verticalLabelPosition=bottom;html=1;verticalAlign=top;aspect=fixed;align=center;pointerEvents=1;shape=mxgraph.cisco19.workstation;fillColor=#005073;strokeColor=none;" parent="1" vertex="1">
                    <mxGeometry x="20" y="45" width="50" height="42" as="geometry"/>
                </mxCell>
                <mxCell id="34" value="API" style="text;html=1;align=center;verticalAlign=middle;resizable=0;points=[];autosize=1;strokeColor=none;" parent="1" vertex="1">
                    <mxGeometry x="320" y="10" width="30" height="20" as="geometry"/>
                </mxCell>
                <mxCell id="35" value="" style="aspect=fixed;perimeter=ellipsePerimeter;html=1;align=center;shadow=0;dashed=0;spacingTop=3;image;image=img/lib/active_directory/generic_server.svg;" parent="1" vertex="1">
                    <mxGeometry x="321" y="35" width="28.000000000000004" height="52" as="geometry"/>
                </mxCell>
                <mxCell id="37" value="No Authorization header!" style="text;html=1;align=center;verticalAlign=middle;resizable=0;points=[];autosize=1;strokeColor=none;" parent="1" vertex="1">
                    <mxGeometry x="20" y="10" width="150" height="20" as="geometry"/>
                </mxCell>
                <mxCell id="38" value="&lt;font style=&quot;font-size: 14px&quot;&gt;Status Code: 403&lt;br&gt;{&lt;br&gt;&quot;message&quot;: &quot;you are not authorized&quot;&lt;br&gt;}&lt;br&gt;&lt;br&gt;&lt;/font&gt;" style="text;html=1;align=left;verticalAlign=middle;resizable=0;points=[];autosize=1;strokeColor=none;" parent="1" vertex="1">
                    <mxGeometry x="215" y="110" width="240" height="70" as="geometry"/>
                </mxCell>
            </root>
        </mxGraphModel>
    </diagram>
</mxfile>